<!-- material-design-icons article 32x32 -->
<svg xmlns="http://www.w3.org/2000/svg" viewBox="0 0 200 200" fill="#427D6D" width="32px" height="32px">
    <path d="M0 0h24v24H0z" fill="none"/>
    <path d="M128.63,113.86c-3.3,-1.71 -11.46,-4.38 -17.53,-8.77c-2.96,-2.15 -5.43,-4.4 -7.31,-6.5c0.31,0.06 0.61,0.2 0.84,0.43l0.32,0.32c0.2,0.2 0.48,0.27 0.74,0.22c0.15,-0.03 0.3,-0.1 0.42,-0.22l0.65,-0.63c0.61,-0.6 0.64,-1.55 0.07,-2.19l-6.34,-7.01l0,0l-1.24,-1.37c-0.32,-0.35 -0.73,-0.58 -1.16,-0.69c4.17,-5.35 8.89,-13.77 8.89,-20.36c-5.34,4.85 -10.51,7.98 -11.97,12.12c0.48,-5.33 2.92,-11.05 1.9,-15.2c-7.86,11.52 -9.97,21.03 -8.77,25.75l-13.87,13.54c-5.69,5.55 -9.05,11.1 -10.08,12.93c-0.22,0.39 -0.27,0.85 -0.12,1.28l0.94,2.74l0,0l0,0l1.26,1.23c0.11,0.1 0.22,0.2 0.33,0.29c0.03,0.03 0.07,0.05 0.1,0.07c0.09,0.06 0.17,0.12 0.26,0.18c0.04,0.02 0.07,0.04 0.11,0.07c0.1,0.06 0.19,0.11 0.29,0.15c0.03,0.01 0.06,0.03 0.08,0.04c0.41,0.18 0.84,0.3 1.27,0.34c0,0 0,0 0.01,0c1.04,0.11 2.13,-0.17 3.01,-0.85c0.86,-0.67 1.9,-1.4 3.12,-2.08c0.83,-0.47 2,-1.03 3.37,-1.65c0,0 0,0 0,0c1.71,-0.77 3.74,-1.62 5.82,-2.46c0.14,0.28 0.44,0.47 0.77,0.46c0.45,-0.02 0.8,-0.39 0.78,-0.83l-0.01,-0.25c0.44,-0.18 0.88,-0.35 1.31,-0.52c0.14,0.28 0.43,0.46 0.77,0.45c0.45,-0.02 0.8,-0.39 0.78,-0.83l-0.01,-0.22c0.45,-0.18 0.9,-0.35 1.33,-0.52c0.15,0.26 0.43,0.43 0.75,0.41c0.45,-0.02 0.8,-0.39 0.78,-0.83l-0.01,-0.17c0.47,-0.18 0.93,-0.35 1.36,-0.52c0.15,0.23 0.42,0.37 0.72,0.36c0.45,-0.02 0.8,-0.39 0.78,-0.83l0,-0.09c0.41,-0.15 0.79,-0.3 1.12,-0.42c0.12,-0.04 0.23,-0.1 0.34,-0.16c0.65,-0.36 1.09,-0.99 1.2,-1.7c4.9,5.18 10.52,11.34 12.79,14.71c1.32,1.96 5.98,6.51 11.93,11.93L136,118.47C132.82,116.3 130.03,114.58 128.63,113.86z"/>
</svg>
