<?xml version="1.0" encoding="UTF-8"?>
<svg xmlns="http://www.w3.org/2000/svg" xmlns:xlink="http://www.w3.org/1999/xlink" width="24pt" height="24pt" viewBox="0 0 24 24" version="1.1">
<path fill="#006688" d="M 21.792969 23.519531 L 2.207031 23.519531 C 1.253906 23.519531 0.480469 22.746094 0.480469 21.792969 L 0.480469 2.207031 C 0.480469 1.253906 1.253906 0.480469 2.207031 0.480469 L 21.792969 0.480469 C 22.746094 0.480469 23.519531 1.253906 23.519531 2.207031 L 23.519531 21.792969 C 23.519531 22.746094 22.746094 23.519531 21.792969 23.519531 Z M 21.792969 23.519531 "/>
<path fill="#ffffff" d="M 18.109375 14.957031 C 17.40625 14.59375 15.664062 14.023438 14.367188 13.085938 C 13.738281 12.628906 13.210938 12.148438 12.808594 11.699219 C 12.875 11.710938 12.9375 11.742188 12.988281 11.792969 L 13.058594 11.859375 C 13.101562 11.902344 13.160156 11.914062 13.214844 11.90625 C 13.246094 11.898438 13.277344 11.882812 13.304688 11.859375 L 13.441406 11.722656 C 13.574219 11.59375 13.578125 11.390625 13.457031 11.257812 L 12.105469 9.757812 L 11.839844 9.46875 C 11.773438 9.390625 11.6875 9.34375 11.59375 9.320312 C 12.484375 8.179688 13.492188 6.378906 13.492188 4.976562 C 12.351562 6.011719 11.25 6.679688 10.9375 7.5625 C 11.039062 6.425781 11.5625 5.207031 11.34375 4.320312 C 9.667969 6.777344 9.21875 8.804688 9.472656 9.8125 L 6.511719 12.703125 C 5.300781 13.886719 4.582031 15.070312 4.363281 15.460938 C 4.316406 15.546875 4.308594 15.644531 4.339844 15.734375 L 4.539062 16.320312 L 4.804688 16.582031 C 4.828125 16.601562 4.851562 16.625 4.875 16.644531 C 4.882812 16.648438 4.890625 16.652344 4.898438 16.660156 C 4.914062 16.671875 4.933594 16.683594 4.953125 16.695312 C 4.960938 16.703125 4.96875 16.707031 4.976562 16.710938 C 4.996094 16.722656 5.015625 16.734375 5.039062 16.742188 C 5.042969 16.746094 5.050781 16.75 5.054688 16.753906 C 5.140625 16.792969 5.234375 16.816406 5.328125 16.824219 C 5.550781 16.847656 5.78125 16.789062 5.96875 16.644531 C 6.152344 16.5 6.375 16.34375 6.636719 16.199219 C 6.8125 16.097656 7.0625 15.976562 7.355469 15.847656 C 7.71875 15.679688 8.152344 15.5 8.59375 15.320312 C 8.625 15.378906 8.6875 15.421875 8.761719 15.417969 C 8.855469 15.414062 8.929688 15.335938 8.925781 15.238281 L 8.925781 15.1875 C 9.019531 15.148438 9.113281 15.113281 9.203125 15.078125 C 9.234375 15.136719 9.296875 15.175781 9.367188 15.171875 C 9.464844 15.167969 9.539062 15.089844 9.535156 14.992188 L 9.53125 14.945312 C 9.628906 14.910156 9.722656 14.871094 9.816406 14.835938 C 9.847656 14.890625 9.910156 14.929688 9.976562 14.925781 C 10.074219 14.921875 10.148438 14.839844 10.144531 14.746094 L 10.140625 14.710938 C 10.242188 14.671875 10.339844 14.636719 10.433594 14.601562 C 10.464844 14.648438 10.523438 14.679688 10.585938 14.675781 C 10.679688 14.671875 10.757812 14.59375 10.753906 14.5 L 10.75 14.480469 C 10.839844 14.445312 10.921875 14.414062 10.988281 14.390625 C 11.015625 14.378906 11.039062 14.371094 11.0625 14.355469 C 11.199219 14.28125 11.292969 14.148438 11.320312 13.992188 C 12.367188 15.097656 13.5625 16.410156 14.046875 17.132812 C 14.328125 17.546875 15.324219 18.519531 16.59375 19.675781 L 19.675781 15.9375 C 19 15.476562 18.40625 15.109375 18.109375 14.957031 Z M 18.109375 14.957031 "/>
</svg>
